<svg viewBox="0 0 20 20" xmlns="http://www.w3.org/2000/svg"><path fill="currentColor" d="M12.311 17.665A8.8 8.8 0 0 0 14.507 11h3.423a8.02 8.02 0 0 1-5.619 6.665Zm-2.306-.159A11.14 11.14 0 0 1 7.495 11h5.011a11.14 11.14 0 0 1-2.501 6.506ZM2.069 11h3.424a13.27 13.27 0 0 0 2.206 6.668A8.02 8.02 0 0 1 2.069 11Zm5.219-8.524A13.35 13.35 0 0 0 5.467 9H2.069a8.04 8.04 0 0 1 5.219-6.524Zm2.679-.482.027-.036.026.036A11.05 11.05 0 0 1 12.532 9H7.467a11.05 11.05 0 0 1 2.5-7.006ZM17.93 9h-3.398a13.35 13.35 0 0 0-1.833-6.527A8.04 8.04 0 0 1 17.93 9ZM10.855.037C4.942-.465 0 4.199 0 10.002c0 5.437 4.335 9.84 9.71 9.993C15.387 20.159 20 15.595 20 10.002 20 4.84 16.068.482 10.855.037Z"/></svg>
